HIERARCHY
ROOT Hips
{
	OFFSET 0.00000 0.00000 0.00000
	CHANNELS 6 Xposition Yposition Zposition Zrotation Yrotation Xrotation 
	JOINT LHipJoint
	{
		OFFSET 0 0 0
		CHANNELS 3 Zrotation Yrotation Xrotation
		JOINT LeftHip
		{
			OFFSET 1.58895 -1.83665 0.71753
			CHANNELS 3 Zrotation Yrotation Xrotation
			JOINT LeftKnee
			{
				OFFSET 2.50528 -6.88321 0.00000
				CHANNELS 3 Zrotation Yrotation Xrotation
				JOINT LeftAnkle
				{
					OFFSET 2.63244 -7.23257 0.00000
					CHANNELS 3 Zrotation Yrotation Xrotation
					JOINT LeftToe
					{
						OFFSET 0.23691 -0.65090 1.72750
						CHANNELS 3 Zrotation Yrotation Xrotation
						End Site
						{
							OFFSET 0.00000 -0.00000 0.92561
						}
					}
				}
			}
		}
	}
	JOINT RHipJoint
	{
		OFFSET 0 0 0
		CHANNELS 3 Zrotation Yrotation Xrotation
		JOINT RightHip
		{
			OFFSET -1.51435 -1.83665 0.71753
			CHANNELS 3 Zrotation Yrotation Xrotation
			JOINT RightKnee
			{
				OFFSET -2.54551 -6.99375 0.00000
				CHANNELS 3 Zrotation Yrotation Xrotation
				JOINT RightAnkle
				{
					OFFSET -2.66027 -7.30903 0.00000
					CHANNELS 3 Zrotation Yrotation Xrotation
					JOINT RightToe
					{
						OFFSET -0.22981 -0.63138 2.03959
						CHANNELS 3 Zrotation Yrotation Xrotation
						End Site
						{
							OFFSET -0.00000 -0.00000 1.07060
						}
					}
				}
			}
		}
	}
	JOINT lowerback
	{
		OFFSET 0 0 0
		CHANNELS 3 Zrotation Yrotation Xrotation
		JOINT Chest
		{
			OFFSET -0.02651 1.86275 -0.11152
			CHANNELS 3 Zrotation Yrotation Xrotation
			JOINT Chest2
			{
				OFFSET 0.01019 1.86224 0.04087
				CHANNELS 3 Zrotation Yrotation Xrotation
				JOINT lowerneck
				{
					OFFSET 0 0 0
					CHANNELS 3 Zrotation Yrotation Xrotation
					JOINT Neck
					{
						OFFSET -0.01926 1.80512 0.08867
						CHANNELS 3 Zrotation Yrotation Xrotation
						JOINT Head
						{
							OFFSET 0.05516 1.76451 -0.38475
							CHANNELS 3 Zrotation Yrotation Xrotation
							End Site
							{
								OFFSET 0.01592 1.82587 -0.14001
							}
						}
					}
				}
				JOINT LeftCollar
				{
					OFFSET 0 0 0
					CHANNELS 3 Zrotation Yrotation Xrotation
					JOINT LeftShoulder
					{
						OFFSET 3.47116 1.51376 0.14491
CHANNELS 3 Zrotation Xrotation Yrotation
						JOINT LeftElbow
						{
OFFSET 0 -4.780950 0.000000
CHANNELS 3 Zrotation Xrotation Yrotation
							JOINT LeftWrist
							{
OFFSET 0 -3.586150 -0.000000
CHANNELS 3 Zrotation Xrotation Yrotation
								JOINT lhand
								{
									OFFSET 0 0 0
CHANNELS 3 Zrotation Xrotation Yrotation
									JOINT LFingers
									{
OFFSET 0 -0.659810 0.000000
CHANNELS 3 Zrotation Xrotation Yrotation
										End Site
										{
OFFSET 0 -0.531960 0.000000
										}
									}
								}
								JOINT LThumb
								{
OFFSET 0 0.000000 0.000000
CHANNELS 3 Zrotation Xrotation Yrotation
									End Site
									{
OFFSET 0 -0.540080 0.540080
									}
								}
							}
						}
					}
				}
				JOINT RightCollar
				{
					OFFSET 0 0 0
					CHANNELS 3 Zrotation Yrotation Xrotation
					JOINT RightShoulder
					{
						OFFSET -3.31725 1.61216 0.35156
CHANNELS 3 Zrotation Xrotation Yrotation
						JOINT RightElbow
						{
OFFSET 0 -4.489130 0.000000
CHANNELS 3 Zrotation Xrotation Yrotation
							JOINT RightWrist
							{
OFFSET 0 -3.705100 0.000000
CHANNELS 3 Zrotation Xrotation Yrotation
								JOINT rhand
								{
									OFFSET 0 0 0
CHANNELS 3 Zrotation Xrotation Yrotation
									JOINT RFingers
									{
OFFSET 0 -0.449140 0.000000
CHANNELS 3 Zrotation Xrotation Yrotation
										End Site
										{
OFFSET 0 -0.362110 0.000000
										}
									}
								}
								JOINT RThumb
								{
OFFSET 0 0.000000 0.000000
CHANNELS 3 Zrotation Xrotation Yrotation
									End Site
									{
OFFSET 0 -0.367630 0.367630
									}
								}
							}
						}
					}
				}
			}
		}
	}
}
MOTION
Frames: 9
Frame Time: 0.008333333333333333
-0.472500 18.677500 5.863700 -2.268900 -3.899800 3.083600 0.000000 0.000000 0.000000 -12.627200 -4.670000 -3.290300 1.404800 7.497200 21.196900 1.905600 7.240400 -29.509700 8.089800 -16.184900 -52.885400 0.000000 0.000000 0.000000 0.000000 0.000000 0.000000 0.000000 0.000000 0.000000 -0.000000 -0.000000 0.000000 -0.000000 -0.000000 0.000000 0.507400 0.791800 1.652200 0.619400 1.104200 -3.699900 0.291800 0.542400 -4.744600 -1.279700 -1.675000 -9.840800 2.308800 -2.707100 24.726000 0.716200 -1.139200 9.450000 0.000000 0.000000 0.000000 -1.450800 13.821100 -28.793300 20.657100 -31.425900 5.870100 6.892800 5.473900 24.476300 0.000000 0.000000 0.000000 -7.125000 0.000000 0.000000 -13.777400 5.931100 -12.660400 0.000000 0.000000 0.000000 0.317900 20.550400 23.169700 -25.235200 -36.443400 -8.429200 -7.435500 15.030800 35.511100 0.000000 0.000000 0.000000 7.125000 0.000000 -0.000000 31.723700 62.919400 -14.555700
-0.469991 18.676987 5.857498 -2.276120 -3.973319 3.017930 0.000000 0.000000 0.000000 -12.615128 -4.476804 -3.338070 1.414263 7.521419 21.269580 1.888886 7.251159 -29.407572 8.130548 -16.214424 -53.031644 0.000000 0.000000 0.000000 0.000000 0.000000 0.000000 0.000000 0.000000 0.000000 0.000000 0.000000 0.000000 0.000000 0.000000 0.000000 0.485493 0.786027 1.811217 0.631370 1.097750 -3.705892 0.314542 0.540025 -4.842165 -1.275178 -1.667680 -9.804340 2.315396 -2.699962 24.721417 0.718744 -1.135339 9.441270 0.000000 0.000000 0.000000 -1.462938 13.922160 -28.848377 20.813623 -31.610127 5.951960 6.732096 5.731090 23.916654 0.000000 0.000000 0.000000 -7.125000 0.000000 0.000000 -13.871329 6.490331 -12.598591 0.000000 0.000000 0.000000 0.341505 20.577138 23.078937 -25.439244 -36.649564 -8.550770 -6.891254 14.768459 35.185497 0.000000 0.000000 0.000000 7.125000 0.000000 0.000000 31.915810 62.507673 -14.344611
-0.468075 18.675086 5.851296 -2.309022 -4.011164 2.947585 0.000000 0.000000 0.000000 -12.577618 -4.386367 -3.333586 1.422037 7.541012 21.328484 1.889414 7.205916 -29.384115 8.123728 -16.209452 -53.007098 0.000000 0.000000 0.000000 0.000000 0.000000 0.000000 0.000000 0.000000 0.000000 0.000000 0.000000 0.000000 0.000000 0.000000 0.000000 0.495020 0.772682 1.964131 0.647783 1.082534 -3.703615 0.324860 0.532177 -4.927171 -1.256316 -1.656621 -9.770663 2.318074 -2.689229 24.714787 0.717887 -1.128800 9.432108 0.000000 0.000000 0.000000 -1.454467 13.990056 -28.880679 20.858935 -31.663323 5.975717 6.780208 5.656777 23.918919 0.000000 0.000000 0.000000 -7.125000 0.000000 0.000000 -13.842050 6.483858 -12.572143 0.000000 0.000000 0.000000 0.372281 20.645746 23.081452 -25.545013 -36.755857 -8.613918 -6.757884 14.794546 35.156641 0.000000 0.000000 0.000000 7.125000 0.000000 0.000000 32.019856 62.449508 -14.352874
-0.466967 18.673018 5.845310 -2.323052 -4.047419 2.860935 0.000000 0.000000 0.000000 -12.551669 -4.250564 -3.328201 1.428273 7.556877 21.376132 1.886753 7.126735 -29.319707 8.128965 -16.213304 -53.025896 0.000000 0.000000 0.000000 0.000000 0.000000 0.000000 0.000000 0.000000 0.000000 0.000000 0.000000 0.000000 0.000000 0.000000 0.000000 0.491782 0.768667 2.110201 0.655762 1.078612 -3.681821 0.333182 0.530388 -4.987878 -1.301070 -1.668322 -9.756998 2.398930 -2.717372 24.708197 0.750386 -1.137630 9.429624 0.000000 0.000000 0.000000 -1.450331 13.972469 -28.849993 20.850243 -31.653140 5.971119 6.724499 5.757616 23.960607 0.000000 0.000000 0.000000 -7.125000 0.000000 0.000000 -13.876183 6.448275 -12.614944 0.000000 0.000000 0.000000 0.380219 20.668077 23.140128 -25.582991 -36.793991 -8.636666 -7.139409 14.896143 35.312045 0.000000 0.000000 0.000000 7.125000 0.000000 0.000000 31.802803 62.677054 -14.414347
-0.466992 18.671831 5.839673 -2.312365 -4.095960 2.760737 0.000000 0.000000 0.000000 -12.556947 -4.097719 -3.306691 1.432192 7.566924 21.406271 1.866510 7.175281 -29.216941 8.159671 -16.235459 -53.135914 0.000000 0.000000 0.000000 0.000000 0.000000 0.000000 0.000000 0.000000 0.000000 0.000000 0.000000 0.000000 0.000000 0.000000 0.000000 0.432596 0.769558 2.240560 0.661620 1.078308 -3.643444 0.370829 0.532519 -5.023309 -1.323958 -1.672077 -9.712609 2.458275 -2.731727 24.641165 0.773374 -1.140962 9.399044 0.000000 0.000000 0.000000 -1.444269 13.940964 -28.842224 20.849950 -31.652727 5.971019 6.700846 5.847884 23.858931 0.000000 0.000000 0.000000 -7.125000 0.000000 0.000000 -13.890092 6.549280 -12.600433 0.000000 0.000000 0.000000 0.407540 20.677339 23.160469 -25.613209 -36.824209 -8.654805 -8.463769 15.609136 35.289469 0.000000 0.000000 0.000000 7.125000 0.000000 0.000000 30.413871 63.000744 -13.952297
-0.466298 18.671238 5.834612 -2.272654 -4.093274 2.702424 0.000000 0.000000 0.000000 -12.589352 -4.005601 -3.321419 1.436148 7.576821 21.435883 1.853184 7.168756 -29.125875 8.174416 -16.246083 -53.188655 0.000000 0.000000 0.000000 0.000000 0.000000 0.000000 0.000000 0.000000 0.000000 0.000000 0.000000 0.000000 0.000000 0.000000 0.000000 0.372695 0.762177 2.333803 0.644229 1.065527 -3.629896 0.385993 0.527924 -5.063077 -1.289571 -1.703046 -9.709193 2.417335 -2.771685 24.620125 0.748993 -1.161243 9.390827 0.000000 0.000000 0.000000 -1.382543 13.939870 -28.983643 20.838606 -31.639456 5.965032 6.832493 5.701749 23.846443 0.000000 0.000000 0.000000 -7.125000 0.000000 0.000000 -13.809923 6.549564 -12.523041 0.000000 0.000000 0.000000 0.469011 20.705304 23.127285 -25.602179 -36.813079 -8.648144 -8.396835 15.648754 35.224856 0.000000 0.000000 0.000000 7.125000 0.000000 0.000000 30.410578 62.928859 -13.898778
-0.465279 18.670025 5.829376 -2.263989 -4.076928 2.646529 0.000000 0.000000 0.000000 -12.586583 -3.955154 -3.324930 1.441845 7.591128 21.478973 1.858682 7.028299 -29.078176 8.156152 -16.232929 -53.123180 0.000000 0.000000 0.000000 0.000000 0.000000 0.000000 0.000000 0.000000 0.000000 0.000000 0.000000 0.000000 0.000000 0.000000 0.000000 0.351007 0.743665 2.441223 0.643291 1.040521 -3.626309 0.397490 0.516258 -5.120831 -1.307401 -1.731645 -9.722625 2.404742 -2.805733 24.624109 0.743830 -1.180037 9.395583 0.000000 0.000000 0.000000 -1.348664 13.928412 -29.047589 20.807344 -31.602763 5.948657 6.898794 5.620031 23.938368 0.000000 0.000000 0.000000 -7.125000 0.000000 0.000000 -13.770036 6.454037 -12.510693 0.000000 0.000000 0.000000 0.499737 20.725373 23.144905 -25.574151 -36.785095 -8.631399 -7.182736 15.000523 35.213198 0.000000 0.000000 0.000000 7.125000 0.000000 0.000000 31.647954 62.605694 -14.283459
-0.463566 18.668276 5.824515 -2.304400 -4.071926 2.570327 0.000000 0.000000 0.000000 -12.538222 -3.901288 -3.301706 1.448214 7.607203 21.527310 1.863563 6.904544 -29.036670 8.141927 -16.222715 -53.072343 0.000000 0.000000 0.000000 0.000000 0.000000 0.000000 0.000000 0.000000 0.000000 0.000000 0.000000 0.000000 0.000000 0.000000 0.000000 0.369930 0.721726 2.569425 0.680433 1.014807 -3.612602 0.425401 0.503460 -5.180027 -1.363314 -1.731937 -9.689143 2.406206 -2.794224 24.567202 0.755238 -1.180461 9.369769 0.000000 0.000000 0.000000 -1.412569 13.907151 -28.967679 20.796324 -31.589829 5.942846 6.863587 5.661478 23.929079 0.000000 0.000000 0.000000 -7.125000 0.000000 0.000000 -13.791373 6.466313 -12.528009 0.000000 0.000000 0.000000 0.477578 20.758843 23.166134 -25.552776 -36.763708 -8.618599 -6.693734 14.807939 35.247351 0.000000 0.000000 0.000000 7.125000 0.000000 0.000000 32.186214 62.508578 -14.480536
-0.459669 18.666046 5.823500 -2.322762 -4.120553 2.499678 0.000000 0.000000 0.000000 -12.542441 -3.870221 -3.242893 1.452477 7.617939 21.559426 1.855007 6.968750 -29.018399 8.124344 -16.209883 -53.009138 0.000000 0.000000 0.000000 0.000000 0.000000 0.000000 0.000000 0.000000 0.000000 0.000000 0.000000 0.000000 0.000000 0.000000 0.000000 0.420329 0.724293 2.624604 0.681576 1.021055 -3.585335 0.397319 0.504577 -5.182283 -1.354912 -1.728392 -9.685124 2.381358 -2.783907 24.535790 0.746406 -1.177854 9.357238 0.000000 0.000000 0.000000 -1.448194 13.890983 -28.906611 20.806863 -31.602217 5.948455 6.862547 5.687633 23.863101 0.000000 0.000000 0.000000 -7.125000 0.000000 0.000000 -13.791676 6.530676 -12.510667 0.000000 0.000000 0.000000 0.491280 20.736996 22.984744 -25.369506 -36.579206 -8.509124 -6.040547 14.569952 35.487975 0.000000 0.000000 0.000000 7.125000 0.000000 0.000000 33.120534 62.540087 -14.975215
